<?xml version="1.0" encoding="UTF-8"?>
<svg width="16px" height="16px" viewBox="0 0 16 16" version="1.1" xmlns="http://www.w3.org/2000/svg" xmlns:xlink="http://www.w3.org/1999/xlink">
    <title>3图标/16/开眼</title>
    <g id="3图标/16/开眼" stroke="none" stroke-width="1" fill="none" fill-rule="evenodd">
        <g id="3图标/开眼">
            <rect id="矩形" fill-opacity="0.01" fill="#FFFFFF" fill-rule="nonzero" x="0" y="0" width="16" height="16"></rect>
            <path d="M8,13.6666333 C11.3137,13.6666333 14,10.8926 14,8.99996667 C14,7.1073 11.3137,4.3333 8,4.3333 C4.6863,4.3333 2,7.10923333 2,8.99996667 C2,10.8907 4.6863,13.6666333 8,13.6666333 Z" id="路径" stroke="#F06B00" stroke-width="1.33333333" stroke-linejoin="round"></path>
            <path d="M8,10.9999667 C9.10456667,10.9999667 10,10.1045333 10,8.99996667 C10,7.8954 9.10456667,6.99996667 8,6.99996667 C6.89543333,6.99996667 6,7.8954 6,8.99996667 C6,10.1045333 6.89543333,10.9999667 8,10.9999667 Z" id="路径" stroke="#F06B00" stroke-width="1.33333333" stroke-linejoin="round"></path>
            <line x1="4.42123333" y1="3.75533333" x2="5.28606667" y2="4.96206667" id="路径" stroke="#F06B00" stroke-width="1.33333333" stroke-linecap="round"></line>
            <line x1="11.875" y1="3.90343333" x2="11.0101333" y2="5.11016667" id="路径" stroke="#F06B00" stroke-width="1.33333333" stroke-linecap="round"></line>
            <line x1="8.00293333" y1="2.33329333" x2="8.00293333" y2="4.3333" id="路径" stroke="#F06B00" stroke-width="1.33333333" stroke-linecap="round"></line>
        </g>
    </g>
</svg>