<?xml version="1.0" encoding="UTF-8"?>
<svg width="14px" height="14px" viewBox="0 0 14 14" version="1.1" xmlns="http://www.w3.org/2000/svg" xmlns:xlink="http://www.w3.org/1999/xlink">
    <title>3icon/14/jiantou_chaxunshouqi</title>
    <g id="3icon/14/jiantou_chaxunshouqi" stroke="none" stroke-width="1" fill="none" fill-rule="evenodd">
        <g id="icon/箭头-面包屑" transform="translate(7.000000, 7.000000) scale(1, -1) translate(-7.000000, -7.000000) translate(1.000000, 3.500000)" fill="#4181FA">
            <path d="M2.93868,-2.02158857 C3.12180988,-2.20444309 3.41843012,-2.20444309 3.60156,-2.02158857 L9.1815,3.07499143 C9.27948,3.17267143 9.3207,3.30179143 9.31434,3.42923143 C9.32076,3.55655143 9.27948,3.68603143 9.1815,3.78341143 L3.6015,8.87999143 C3.41825433,9.06250922 3.12192567,9.06250922 2.93868,8.87999143 C2.85076268,8.79240012 2.80132426,8.67340498 2.80132426,8.54930143 C2.80132426,8.42519788 2.85076268,8.30620273 2.93868,8.21861143 L8.18238,3.42917143 L2.93868,-1.36050857 C2.85075482,-1.44802254 2.80132426,-1.56696402 2.80132426,-1.69101857 C2.80132426,-1.81507312 2.85075482,-1.93401461 2.93868,-2.02152857 L2.93868,-2.02158857 Z" id="向右箭头" transform="translate(6.058155, 3.429075) rotate(90.000000) translate(-6.058155, -3.429075) "></path>
        </g>
    </g>
</svg>