<?xml version="1.0" encoding="UTF-8"?>
<svg width="16px" height="16px" viewBox="0 0 16 16" version="1.1" xmlns="http://www.w3.org/2000/svg" xmlns:xlink="http://www.w3.org/1999/xlink">
    <title>3图标/16/安全退出@2x</title>
    <g id="3图标/16/安全退出" stroke="none" stroke-width="1" fill="none" fill-rule="evenodd">
        <g id="icon/安全退出" fill="rgba(0,0,0,.65)" fill-rule="nonzero">
            <path d="M8.8,15.2 L1.45454545,15.2 C0.654545453,15.2 0,14.5294118 0,13.7098039 L0,1.49019608 C0,0.670588234 0.654545453,0 1.45454545,0 L8.8,0 C9.23636364,0 9.52727273,0.298039219 9.52727273,0.745098031 C9.52727273,1.19215684 9.23636364,1.49019608 8.8,1.49019608 L1.45454545,1.49019608 L1.45454545,13.7843137 L8.8,13.7843137 C9.23636364,13.7843137 9.52727273,14.082353 9.52727273,14.5294118 C9.52727273,14.9019608 9.23636364,15.2 8.8,15.2 L8.8,15.2 Z M11.4181818,11.5490196 C11.1272727,11.2509804 11.1272727,10.8039216 11.4181818,10.5058824 L14.1818182,7.6745098 L11.2020443,4.42715201 C11.2020443,4.07693483 11.2740902,3.81821095 11.4181818,3.65098039 C11.6343193,3.40013454 12.1454545,3.35294117 12.4363636,3.65098039 L15.7818182,7.07843138 C16.0727273,7.37647059 16.0727273,7.82352942 15.7818182,8.12156862 L12.4363636,11.5490196 C12.2181818,11.8470588 11.7090909,11.8470588 11.4181818,11.5490196 Z" id="形状"></path>
            <path d="M14.4,8 L6.30967743,8 C5.88387097,8 5.6,7.68 5.6,7.2 C5.6,6.72 5.88387097,6.4 6.30967743,6.4 L14.4,6.4 L14.4,8 L14.4,8 Z" id="路径"></path>
        </g>
    </g>
</svg>