<?xml version="1.0" encoding="UTF-8"?>
<svg width="16px" height="16px" viewBox="0 0 16 16" version="1.1" xmlns="http://www.w3.org/2000/svg" xmlns:xlink="http://www.w3.org/1999/xlink">
    <title>3图标/16/服务中心@2x</title>
    <g id="3图标/16/服务中心" stroke="none" stroke-width="1" fill="none" fill-rule="evenodd">
        <rect id="矩形" x="0" y="0" width="16" height="16"></rect>
        <g id="服务中心-(5)" fill="#F06B00" fill-rule="nonzero">
            <path d="M2.30353929,16 C1.0269946,16 0,15.066012 0,13.9050736 L0,2.18221495 C0,0.977632297 1.074985,0 2.3995201,0 L13.6004799,0 C14.925015,0 16,0.977632297 16,2.18221495 L16,4.3644299 C16,4.84451718 15.4913017,5.2111293 14.9346131,5.05400982 C14.6082783,4.95799236 14.3971206,4.67866885 14.3971206,4.3644299 L14.3971206,2.18221495 C14.3971206,1.7806874 14.0419916,1.45771959 13.6004799,1.45771959 L2.3995201,1.45771959 C1.9580084,1.45771959 1.60287942,1.7806874 1.60287942,2.18221495 L1.60287942,13.8177851 C1.60287942,14.2018549 1.94841032,14.5160938 2.37072585,14.5160938 L13.6292741,14.5160938 C14.0515897,14.5160938 14.3971206,14.2018549 14.3971206,13.8177851 L14.3971206,7.27114021 C14.3971206,6.79105292 14.9058188,6.42444081 15.4625075,6.58156028 C15.7888422,6.67757774 16,6.95690125 16,7.27114021 L16,13.8788871 C16,15.0310966 14.9730054,15.9738134 13.6964607,15.9738134 L2.30353929,16 Z" id="路径"></path>
            <path d="M8.00167829,4 C8.26879743,4 8.51087415,4.15644487 8.62773877,4.39980355 L9.48752851,6.39012995 L11.4074473,6.50311791 C11.7914311,6.56395758 12.0502028,6.92899561 11.9917705,7.32010778 C11.966728,7.47655265 11.8999482,7.62430614 11.7914311,7.7372941 L10.3974031,9.14529792 L10.7229545,11.1443157 C10.7897343,11.5354279 10.5309627,11.9091573 10.1553264,11.9786883 C10.0050718,12.0047625 9.84646985,11.9786883 9.71291028,11.9091573 L8.00167829,10.9791794 L6.28209882,11.9178487 C5.93985242,12.1003677 5.52247876,11.9699969 5.34718182,11.6136503 C5.28040204,11.4745882 5.25535962,11.3094519 5.28040204,11.1530071 L5.60595349,9.1539893 L4.21192548,7.74598548 C3.93645886,7.46786127 3.92811139,7.00721804 4.19523053,6.72040245 C4.30374768,6.60741449 4.44565472,6.52919205 4.59590924,6.51180929 L6.51582807,6.2249937 L7.3756178,4.40849494 C7.49248242,4.15644487 7.73455915,4 8.00167829,4 Z M8.00167829,6.3640558 L7.60099957,7.20711982 C7.5008299,7.42440436 7.30049054,7.57215785 7.07510877,7.60692337 L6.18192914,7.74598548 L6.82468457,8.3978391 C6.99163403,8.56297535 7.06676129,8.80633404 7.02502393,9.04100134 L6.87476941,9.96228779 L7.66777936,9.52771871 C7.86811872,9.41473075 8.11019544,9.41473075 8.31888227,9.52771871 L9.11189222,9.96228779 L8.9616377,9.04100134 C8.91990033,8.80633404 8.99502759,8.56297535 9.16197705,8.3978391 L9.80473249,7.74598548 L8.91155286,7.60692337 C8.68617108,7.57215785 8.48583173,7.42440436 8.38566205,7.20711982 L8.00167829,6.3640558 Z" id="形状"></path>
        </g>
    </g>
</svg>